<svg aria-hidden="true" style="position: absolute; width: 0; height: 0; overflow: hidden;" version="1.1" xmlns="http://www.w3.org/2000/svg" xmlns:xlink="http://www.w3.org/1999/xlink">
<defs>
<symbol id="icon-icon-label" viewBox="0 0 24 32">
<path fill="#d3b288" style="fill: var(--color1, #d3b288)" d="M12 31c-2.105-1.796-4.056-3.764-5.833-5.885-2.667-3.185-5.833-7.928-5.833-12.448-0.001-2.308 0.683-4.565 1.965-6.485s3.105-3.416 5.237-4.299c2.133-0.883 4.479-1.114 6.743-0.663s4.343 1.563 5.975 3.196c1.086 1.081 1.947 2.368 2.533 3.784s0.885 2.935 0.88 4.468c0 4.52-3.167 9.263-5.833 12.448-1.777 2.121-3.728 4.089-5.833 5.885zM12 7.667c-1.326 0-2.598 0.527-3.536 1.464s-1.464 2.209-1.464 3.536c0 1.326 0.527 2.598 1.464 3.536s2.209 1.464 3.536 1.464c1.326 0 2.598-0.527 3.536-1.464s1.464-2.209 1.464-3.536c0-1.326-0.527-2.598-1.464-3.536s-2.209-1.464-3.536-1.464z"></path>
</symbol>
<symbol id="icon-icon-logo" viewBox="0 0 26 32">
<path fill="#d3b288" style="fill: var(--color1, #d3b288)" d="M23.093 21.391c2.195-2.174 3.279-5.188 3.279-8.986s-1.112-6.841-3.279-8.985-5.331-3.217-9.408-3.217h-10.463v10.087h-1.425v-10.29h-1.796v32h5.018v-16.58c5.046 0.29 9.437 3.043 12.031 7.101-1.026 0.203-2.138 0.319-3.364 0.319h-4.562v1.797h4.562c1.568 0 2.994-0.174 4.276-0.493 1.026 2.087 1.597 4.435 1.597 6.928v0.899h5.018v-0.899c0-3.275-0.741-6.406-2.081-9.159 0.228-0.145 0.428-0.319 0.599-0.522zM13.685 2.029c3.592 0 6.329 0.928 8.154 2.725s2.737 4.377 2.737 7.681c0 3.304-0.912 5.884-2.737 7.681-0.086 0.058-0.143 0.145-0.228 0.203-3.421-5.797-9.551-9.71-16.593-10.029v-8.261h8.667zM1.796 30.174v-18.087h1.425v18.087h-1.425zM5.018 13.594v-1.478c6.443 0.319 12.031 3.942 15.167 9.246-0.399 0.232-0.855 0.435-1.311 0.638-2.908-4.812-8.011-8.116-13.856-8.406zM22.779 30.174h-1.454c-0.114-2.348-0.684-4.58-1.625-6.58 0.456-0.174 0.884-0.406 1.311-0.638 1.026 2.203 1.654 4.667 1.768 7.217z"></path>
</symbol>

<symbol id="icon-dandruff" viewBox="0 0 32 32">
<path fill="#d3b288" style="fill: var(--color1, #d3b288)" d="M20.763 2.083c-0.088 0.091-0.515 0.776-0.95 1.522-3.91 6.711-6.349 12.808-7.074 17.683-0.175 1.175-0.175 3.359-0.001 4.072 0.175 0.715 0.413 1.216 0.764 1.607 0.824 0.918 2.256 1.030 3.029 0.237 0.367-0.377 0.537-0.833 0.591-1.591 0.050-0.699-0.074-1.16-0.512-1.904-0.427-0.725-0.538-1.121-0.588-2.091-0.203-4.005 1.665-10.664 4.84-17.252 0.469-0.973 0.853-1.842 0.853-1.929s-0.079-0.241-0.175-0.34c-0.226-0.232-0.561-0.238-0.776-0.015zM22.39 13.761c-0.721 0.322-0.891 1.306-0.326 1.887 0.463 0.476 1.125 0.476 1.588 0 0.887-0.911-0.111-2.402-1.262-1.887zM6.389 14.348c-0.721 0.322-0.891 1.306-0.326 1.886 0.803 0.824 2.118 0.086 1.907-1.070-0.126-0.692-0.93-1.107-1.58-0.816zM15.497 15.886c-0.451 2.107-0.687 4.33-0.616 5.806 0.049 1.019 0.179 1.593 0.491 2.162 0.543 0.99 0.628 1.197 0.628 1.535-0.001 1.028-0.525 1.431-1.335 1.028-0.566-0.281-0.85-1.012-0.925-2.378-0.116-2.117 0.479-5.126 1.698-8.586 0.122-0.346 0.234-0.618 0.248-0.603s-0.070 0.481-0.189 1.035zM29.108 16.366c-0.318 0.143-0.5 0.442-0.5 0.819 0 0.308 0.033 0.394 0.234 0.599s0.283 0.24 0.588 0.24 0.387-0.033 0.588-0.24c0.201-0.207 0.234-0.291 0.234-0.604 0-0.309-0.033-0.398-0.221-0.591-0.236-0.242-0.655-0.344-0.922-0.223zM10.25 17.246c-0.318 0.143-0.5 0.442-0.5 0.819 0 0.308 0.033 0.394 0.233 0.599s0.283 0.24 0.588 0.24 0.387-0.033 0.588-0.24c0.201-0.206 0.234-0.291 0.234-0.604 0-0.309-0.033-0.398-0.221-0.591-0.236-0.242-0.655-0.344-0.922-0.223zM18.822 17.246c-0.318 0.143-0.5 0.442-0.5 0.819 0 0.308 0.033 0.394 0.233 0.599s0.283 0.24 0.588 0.24 0.387-0.033 0.588-0.24c0.201-0.206 0.234-0.291 0.234-0.604 0-0.309-0.033-0.398-0.221-0.591-0.236-0.242-0.655-0.344-0.922-0.223zM2.821 17.833c-0.318 0.143-0.5 0.442-0.5 0.819 0 0.308 0.033 0.394 0.234 0.599s0.283 0.24 0.588 0.24 0.387-0.033 0.588-0.24c0.201-0.206 0.234-0.291 0.234-0.604 0-0.309-0.033-0.398-0.221-0.591-0.236-0.242-0.655-0.344-0.922-0.223zM24.822 18.127c-0.318 0.143-0.5 0.442-0.5 0.819 0 0.308 0.033 0.394 0.234 0.599s0.283 0.24 0.588 0.24 0.387-0.033 0.588-0.24c0.201-0.206 0.234-0.291 0.234-0.604 0-0.309-0.033-0.398-0.221-0.591-0.236-0.242-0.655-0.344-0.922-0.223zM8.142 20.332c-1.673 0.316-2.436 0.37-5.23 0.37h-2.562l-0.175 0.18c-0.235 0.241-0.232 0.575 0.007 0.821l0.183 0.188 3.085-0.039c3.179-0.040 3.152-0.038 5.28-0.418 1.013-0.181 1.308-0.159 1.559 0.115 0.167 0.183 0.168 0.189 0.083 0.974-0.206 1.899 0.012 3.472 0.672 4.849 0.262 0.546 0.444 0.807 0.876 1.254 2.468 2.555 6.439 1.602 7.34-1.761 0.094-0.35 0.127-0.741 0.127-1.468-0.001-0.875-0.023-1.059-0.191-1.578-0.104-0.323-0.335-0.835-0.512-1.137-0.384-0.656-0.417-0.947-0.136-1.214 0.221-0.21 0.397-0.22 1.204-0.066 2.29 0.437 2.077 0.424 7.16 0.454l4.731 0.028 0.18-0.185c0.237-0.243 0.239-0.578 0.005-0.818l-0.175-0.18h-4.246c-4.541 0-4.984-0.024-7.011-0.378-1.745-0.305-2.136-0.255-2.708 0.35-0.352 0.372-0.494 0.797-0.458 1.364 0.025 0.399 0.085 0.561 0.435 1.189 0.508 0.911 0.663 1.542 0.603 2.458-0.125 1.924-1.16 3.082-2.872 3.212-0.992 0.075-1.922-0.287-2.648-1.032-1.059-1.088-1.456-2.903-1.217-5.565 0.076-0.848-0.027-1.233-0.428-1.594-0.688-0.621-1.266-0.694-2.958-0.374z"></path>
</symbol>

<symbol id="icon-hair" viewBox="0 0 32 32">
<path fill="#d3b288" style="fill: var(--color1, #d3b288)" d="M18.324 1.598c-0.574 0.193-0.976 0.37-1.054 0.463-0.255 0.306-0.091 0.791 0.301 0.894l0.205 0.054-0.25 0.42c-0.656 1.103-1.018 2.308-1.075 3.585-0.046 1.030 0.030 1.591 0.343 2.51l0.217 0.637-0.67 1.416c-0.369 0.779-0.748 1.599-0.844 1.822s-0.192 0.407-0.216 0.407c-0.070 0.002-0.209-0.35-0.317-0.806-0.284-1.191 0.038-2.484 0.779-3.126 0.309-0.268 0.359-0.348 0.359-0.571 0-0.195-0.049-0.301-0.197-0.427-0.254-0.217-0.377-0.211-0.768 0.034-0.911 0.573-1.496 2.047-1.395 3.516 0.065 0.947 0.3 1.652 0.837 2.514l0.155 0.248-0.323 0.885c-0.178 0.487-0.459 1.315-0.626 1.841s-0.328 0.984-0.36 1.019c-0.089 0.098-0.484-0.577-0.659-1.125-0.12-0.377-0.157-0.665-0.155-1.204 0.003-0.894 0.168-1.314 0.685-1.743 0.305-0.253 0.348-0.322 0.348-0.56 0-0.209-0.043-0.305-0.188-0.418-0.232-0.181-0.426-0.185-0.706-0.016-1.706 1.031-1.755 4.194-0.091 5.993l0.426 0.461-0.184 1.009c-0.471 2.589-0.41 4.659 0.172 5.79 0.694 1.348 2.496 1.777 3.458 0.822 0.367-0.364 0.537-0.804 0.591-1.535 0.050-0.665-0.073-1.12-0.485-1.796-0.478-0.785-0.58-1.15-0.62-2.212-0.046-1.221-0.012-1.387 0.297-1.498 0.606-0.217 1.287-0.97 1.377-1.523 0.056-0.342-0.11-0.593-0.432-0.653-0.329-0.061-0.527 0.060-0.682 0.416-0.145 0.334-0.362 0.565-0.362 0.384s0.282-1.726 0.437-2.391l0.147-0.633 0.526 0.044c0.953 0.080 1.903-0.218 2.288-0.718 0.691-0.898 0.403-2.258-0.578-2.729-0.282-0.135-0.352-0.144-0.539-0.067-0.248 0.102-0.352 0.261-0.352 0.542 0 0.148 0.091 0.282 0.357 0.525 0.305 0.278 0.357 0.364 0.357 0.588 0 0.457-0.465 0.75-1.191 0.751-0.37 0-0.524-0.055-0.524-0.19 0-0.057 0.259-0.88 0.576-1.828l0.576-1.723 0.335 0.153c0.461 0.211 1.406 0.212 1.871 0.002 1.011-0.456 1.452-1.458 1.076-2.444-0.271-0.71-0.934-1.165-1.296-0.889-0.325 0.247-0.358 0.63-0.077 0.89 0.449 0.417 0.495 0.821 0.133 1.18-0.372 0.368-1.030 0.422-1.413 0.114l-0.168-0.134 0.273-0.663c0.551-1.337 1.072-2.47 1.87-4.069 0.449-0.9 0.817-1.706 0.817-1.791s-0.079-0.233-0.175-0.329c-0.226-0.224-0.561-0.23-0.776-0.014-0.191 0.191-1.495 2.337-2.371 3.902-0.761 1.36-0.785 1.354-0.784-0.202 0-0.813 0.032-1.178 0.134-1.558 0.165-0.611 0.583-1.581 0.886-2.053 0.225-0.352 0.227-0.353 0.228-0.133 0.002 0.345 0.242 0.594 0.573 0.594 0.212 0 0.309-0.043 0.423-0.187 0.135-0.17 0.148-0.281 0.148-1.28v-1.093l-0.209-0.207c-0.118-0.117-0.281-0.205-0.375-0.202-0.091 0.003-0.584 0.146-1.095 0.318zM15.514 17.006c-0.118 0.519-0.266 1.279-0.33 1.688s-0.132 0.847-0.152 0.974c-0.029 0.181-0.071 0.23-0.198 0.23-0.089 0-0.216-0.040-0.283-0.088-0.112-0.082-0.1-0.157 0.16-1.009 0.154-0.506 0.428-1.334 0.608-1.838s0.327-0.932 0.327-0.95c0-0.018 0.019-0.014 0.042 0.009s-0.055 0.466-0.173 0.985zM14.518 20.983l0.337 0.088 0.027 1.201c0.024 1.082 0.046 1.257 0.221 1.768 0.107 0.312 0.34 0.799 0.518 1.083 0.256 0.408 0.332 0.602 0.36 0.921 0.097 1.069-0.46 1.551-1.315 1.141-0.359-0.172-0.616-0.554-0.794-1.179-0.161-0.564-0.154-2.681 0.012-3.664 0.131-0.778 0.264-1.453 0.284-1.448 0.007 0.002 0.165 0.043 0.35 0.091zM8.125 21.311c-1.694 0.302-2.503 0.357-5.257 0.357h-2.518l-0.175 0.174c-0.111 0.11-0.175 0.255-0.175 0.393s0.065 0.283 0.175 0.393l0.175 0.174 2.521-0c2.805-0 3.487-0.046 5.435-0.363 1.453-0.237 1.719-0.231 1.98 0.044l0.165 0.174-0.093 0.958c-0.212 2.181 0.14 3.83 1.104 5.17 1.612 2.239 4.831 2.6 6.685 0.75 0.894-0.892 1.241-1.827 1.24-3.334-0.001-0.844-0.023-1.022-0.191-1.522-0.104-0.312-0.335-0.805-0.512-1.098-0.378-0.622-0.414-0.909-0.149-1.172 0.223-0.221 0.311-0.219 1.829 0.035 1.936 0.325 2.58 0.357 7.089 0.357l4.2 0 0.175-0.174c0.213-0.211 0.229-0.524 0.039-0.757l-0.136-0.167-9.55-0.081-1.536-0.268c-2.018-0.352-2.367-0.318-2.959 0.286-0.352 0.359-0.494 0.769-0.458 1.317 0.025 0.385 0.085 0.541 0.435 1.148 0.508 0.879 0.663 1.488 0.603 2.372-0.126 1.873-1.163 2.979-2.908 3.102-1.216 0.085-2.409-0.514-3.077-1.545-0.58-0.897-0.897-2.28-0.825-3.604 0.022-0.409 0.062-1.006 0.088-1.327 0.058-0.704-0.066-1.102-0.443-1.431-0.687-0.598-1.256-0.667-2.977-0.361z"></path>
</symbol>

<symbol id="icon-hair-loss" viewBox="0 0 32 32">
<path fill="#d3b288" style="fill: var(--color1, #d3b288)" d="M30.32 2.469c-0.895 0.842-2.373 2.378-3.606 3.746-4.417 4.906-7.353 9.574-8.243 13.11-0.368 1.46-0.334 2.5 0.105 3.301 0.662 1.206 2.318 1.514 3.106 0.577 0.633-0.752 0.815-1.826 0.491-2.895-0.286-0.942-0.219-1.599 0.337-3.294 1.298-3.96 4.48-9 8.672-13.737 0.893-1.009 0.963-1.173 0.641-1.496-0.333-0.335-0.496-0.261-1.504 0.688zM14.529 3.983c-0.085 0.086-0.497 0.732-0.917 1.436-3.774 6.332-6.128 12.084-6.827 16.684-0.168 1.109-0.169 3.169-0.001 3.842 0.168 0.675 0.398 1.147 0.737 1.516 0.795 0.866 2.178 0.972 2.923 0.223 0.354-0.356 0.518-0.786 0.571-1.501 0.049-0.66-0.071-1.095-0.494-1.796-0.412-0.684-0.52-1.057-0.567-1.973-0.196-3.779 1.607-10.062 4.671-16.277 0.453-0.918 0.823-1.738 0.823-1.82s-0.076-0.227-0.169-0.32c-0.218-0.219-0.541-0.225-0.749-0.014zM28.966 10.227c-1.471 0.256-1.699 0.313-1.81 0.45-0.182 0.225-0.161 0.529 0.052 0.742 0.188 0.189 0.255 0.192 1.166 0.048l0.276-0.043-0.316 0.338c-1.685 1.802-2.701 3.951-2.93 6.199-0.044 0.434-0.037 0.472 0.131 0.64 0.233 0.234 0.546 0.238 0.774 0.009 0.093-0.093 0.169-0.245 0.169-0.337 0-0.373 0.227-1.438 0.447-2.1 0.46-1.382 1.132-2.492 2.163-3.57 0.363-0.379 0.668-0.663 0.68-0.63s-0.104 0.432-0.256 0.886c-0.152 0.454-0.276 0.899-0.276 0.988 0 0.229 0.294 0.502 0.541 0.502 0.384 0 0.463-0.146 1.080-2.006 0.322-0.97 0.585-1.836 0.585-1.924 0-0.245-0.295-0.502-0.566-0.493-0.125 0.004-0.985 0.14-1.91 0.301zM23.194 12.624c-0.208 0.384-0.558 1.093-0.778 1.575-1.251 2.742-1.693 4.846-1.325 6.307 0.176 0.697 0.184 1.046 0.038 1.479-0.246 0.724-0.871 0.872-1.427 0.34-1.047-1.003 0.114-4.774 2.69-8.738 0.571-0.879 1.115-1.662 1.154-1.662 0.014 0-0.145 0.314-0.352 0.698zM9.447 17.006c-0.436 1.993-0.663 4.091-0.594 5.478 0.060 1.191 0.221 1.719 0.783 2.57 0.181 0.274 0.248 0.458 0.275 0.765 0.094 1.047-0.429 1.517-1.265 1.136-0.536-0.244-0.824-0.97-0.896-2.255-0.112-1.997 0.462-4.837 1.639-8.101 0.118-0.327 0.226-0.583 0.24-0.569s-0.068 0.454-0.182 0.977zM2.9 21.133c-1.286 0.296-1.932 0.416-2.237 0.416-0.595 0-0.874 0.551-0.479 0.948 0.172 0.173 0.202 0.178 0.75 0.139 0.314-0.022 0.986-0.141 1.493-0.263s1.115-0.226 1.351-0.229c0.378-0.005 0.451 0.016 0.614 0.18l0.185 0.186-0.090 0.94c-0.205 2.136 0.134 3.747 1.065 5.057 1.556 2.189 4.636 2.541 6.443 0.737 0.869-0.868 1.206-1.78 1.205-3.263-0.001-0.826-0.022-0.999-0.184-1.488-0.101-0.305-0.329-0.798-0.506-1.097-0.379-0.639-0.407-0.896-0.123-1.141 0.179-0.155 0.214-0.159 0.849-0.104 0.73 0.064 1.419 0.069 2.435 0.021 0.657-0.032 0.674-0.028 0.859 0.157l0.189 0.189-0.083 0.749c-0.199 1.798 0.011 3.278 0.651 4.583 0.263 0.537 0.423 0.757 0.88 1.212 0.943 0.94 1.876 1.32 3.212 1.309 0.885-0.008 1.368-0.143 2.11-0.59 1.206-0.727 1.964-2.352 1.869-4.004-0.047-0.812-0.231-1.429-0.675-2.272-0.384-0.728-0.419-0.98-0.17-1.23 0.212-0.213 0.324-0.213 1.561 0.004 1.582 0.277 2.632 0.38 3.874 0.38 1.138 0 1.161-0.003 1.328-0.17 0.224-0.225 0.224-0.543 0-0.768-0.165-0.166-0.195-0.17-1.234-0.17-1.301 0-2.129-0.080-3.699-0.355-1.637-0.288-2.111-0.227-2.66 0.34-0.329 0.34-0.465 0.745-0.431 1.279 0.023 0.369 0.079 0.526 0.348 0.989 0.435 0.75 0.616 1.319 0.658 2.074 0.107 1.952-1.157 3.421-2.947 3.424-1.709 0.003-2.987-1.137-3.454-3.081-0.167-0.694-0.211-2.011-0.106-3.112 0.101-1.050-0.125-1.498-0.965-1.914l-0.446-0.22-0.944 0.082c-0.71 0.062-1.165 0.063-1.833 0.005-1.265-0.11-1.753 0.047-2.191 0.703-0.406 0.607-0.366 1.235 0.135 2.109 0.537 0.936 0.588 1.116 0.595 2.073 0.007 1.001-0.148 1.593-0.576 2.192-1.006 1.411-3.283 1.552-4.63 0.287-0.662-0.622-1.097-1.555-1.278-2.741-0.106-0.696-0.103-1.258 0.016-2.731 0.056-0.688-0.063-1.078-0.428-1.399-0.608-0.536-1.273-0.657-2.303-0.42z"></path>
</symbol>

<symbol id="icon-molecule" viewBox="0 0 32 32">
<path fill="#d3b288" style="fill: var(--color1, #d3b288)" d="M4.887 0.073c-0.646 0.121-1.461 0.573-1.994 1.105-1.566 1.565-1.573 4.056-0.016 5.612 0.815 0.815 1.669 1.166 2.832 1.166 0.846 0 1.429-0.155 2.040-0.542l0.344-0.218 3.056 3.054-0.38 0.577c-1.241 1.885-1.385 4.253-0.38 6.236 0.107 0.211 0.168 0.407 0.136 0.436s-0.861 0.622-1.84 1.32l-1.781 1.268-0.186-0.151c-0.459-0.372-1.048-0.719-1.458-0.858-2.798-0.948-5.645 1.435-5.218 4.366 0.22 1.51 1.277 2.734 2.805 3.25 0.546 0.184 1.743 0.184 2.289 0 1.315-0.444 2.248-1.375 2.692-2.688 0.1-0.296 0.131-0.588 0.126-1.179-0.006-0.757-0.046-0.95-0.347-1.688-0.036-0.089 0.367-0.41 1.783-1.42l1.83-1.304 0.338 0.315c1.020 0.95 2.124 1.522 3.342 1.733l0.501 0.086 0.019 2.328 0.019 2.328-0.246 0.046c-0.476 0.089-1.22 0.526-1.631 0.956-1.306 1.368-1.31 3.375-0.009 4.738 1.344 1.408 3.569 1.408 4.913 0 1.339-1.403 1.285-3.541-0.123-4.843-0.435-0.403-1.097-0.771-1.53-0.853l-0.233-0.044 0.019-2.333 0.019-2.333 0.179-0.019c1.268-0.135 2.686-0.833 3.633-1.789l0.48-0.485 1.717 1.138c0.944 0.626 1.728 1.148 1.743 1.16s-0.043 0.225-0.127 0.473c-0.72 2.121 0.439 4.362 2.641 5.105 0.546 0.184 1.743 0.184 2.289 0 1.316-0.444 2.25-1.378 2.691-2.688 0.184-0.546 0.183-1.743-0.001-2.287-0.622-1.841-2.306-2.991-4.151-2.835-0.871 0.074-1.696 0.421-2.267 0.956-0.206 0.192-0.388 0.307-0.45 0.284-0.080-0.031-3.28-2.137-3.395-2.235-0.015-0.012 0.089-0.307 0.23-0.655 0.826-2.039 0.556-4.191-0.768-6.128-0.091-0.133-0.011-0.225 1.185-1.358 0.705-0.668 1.443-1.356 1.639-1.527l0.356-0.312 0.415 0.221c1.372 0.731 2.906 0.526 4.021-0.536 1.377-1.313 1.417-3.429 0.091-4.819-1.314-1.376-3.432-1.416-4.823-0.090-1.099 1.048-1.37 2.655-0.677 4.021l0.177 0.348-1.124 1.061c-0.618 0.584-1.353 1.28-1.634 1.548l-0.51 0.487-0.472-0.357c-2.043-1.545-4.953-1.615-7.149-0.172l-0.582 0.382-3.056-3.054 0.218-0.343c0.388-0.611 0.543-1.193 0.543-2.039-0-1.155-0.351-2.011-1.158-2.826-0.93-0.938-2.286-1.347-3.632-1.094zM6.885 1.407c0.645 0.302 1.063 0.712 1.383 1.359 0.252 0.51 0.267 0.578 0.267 1.226s-0.015 0.716-0.267 1.226c-0.322 0.651-0.736 1.056-1.401 1.37-0.432 0.205-0.543 0.226-1.157 0.226s-0.725-0.022-1.157-0.226c-0.665-0.315-1.079-0.72-1.401-1.37-0.252-0.51-0.267-0.578-0.267-1.223 0-0.618 0.021-0.728 0.226-1.16 0.287-0.606 0.697-1.050 1.23-1.334 0.563-0.3 0.872-0.368 1.53-0.337 0.429 0.020 0.658 0.075 1.014 0.241zM5.173 1.772c-0.931 0.225-1.626 1.030-1.728 2.002-0.040 0.387-0.029 0.435 0.141 0.606 0.398 0.398 0.885 0.17 0.985-0.461 0.1-0.632 0.432-0.963 1.064-1.063 0.623-0.099 0.859-0.587 0.471-0.975-0.183-0.183-0.481-0.218-0.933-0.109zM27.387 2.571c0.484 0.258 0.702 0.485 0.981 1.021 0.161 0.31 0.19 0.456 0.191 0.973 0.001 0.556-0.019 0.645-0.242 1.058-0.271 0.502-0.495 0.718-1.034 0.998-0.311 0.162-0.455 0.19-0.973 0.19s-0.662-0.028-0.973-0.19c-0.539-0.28-0.763-0.496-1.034-0.998-0.223-0.413-0.243-0.501-0.241-1.058 0.003-0.717 0.172-1.146 0.637-1.61 0.714-0.713 1.783-0.866 2.688-0.384zM25.738 2.943c-0.351 0.111-0.95 0.73-1.057 1.094-0.136 0.458-0.11 0.726 0.089 0.924 0.355 0.355 0.969 0.103 0.969-0.396 0-0.294 0.278-0.572 0.572-0.572s0.572-0.278 0.572-0.572c0-0.482-0.487-0.686-1.145-0.478zM17.548 9.382c0.812 0.258 1.415 0.635 2.075 1.293 0.654 0.653 1.030 1.252 1.302 2.073 0.167 0.505 0.189 0.685 0.189 1.537s-0.022 1.032-0.189 1.537c-0.272 0.821-0.648 1.42-1.302 2.073s-1.253 1.029-2.075 1.301c-0.505 0.167-0.685 0.189-1.538 0.189s-1.033-0.022-1.538-0.189c-0.822-0.272-1.421-0.647-2.075-1.301s-1.030-1.252-1.302-2.073c-0.167-0.505-0.189-0.685-0.189-1.537s0.022-1.032 0.189-1.537c0.271-0.818 0.646-1.417 1.302-2.079 0.78-0.788 1.675-1.268 2.718-1.458 0.628-0.115 1.792-0.033 2.432 0.171zM15.187 10.366c-0.197 0.037-0.617 0.192-0.934 0.345-1.318 0.635-2.249 2.092-2.249 3.52 0 0.544 0.591 0.829 0.957 0.463 0.126-0.126 0.174-0.278 0.21-0.654 0.128-1.366 1.224-2.465 2.586-2.59 0.384-0.036 0.535-0.083 0.662-0.21 0.22-0.22 0.215-0.554-0.012-0.781-0.194-0.194-0.539-0.22-1.219-0.092zM29.202 19.704c0.645 0.302 1.063 0.712 1.383 1.359 0.252 0.51 0.267 0.578 0.267 1.227s-0.015 0.716-0.267 1.226c-0.322 0.651-0.736 1.056-1.401 1.371-0.432 0.205-0.543 0.226-1.157 0.226s-0.725-0.022-1.157-0.226c-0.665-0.315-1.079-0.72-1.401-1.371-0.252-0.51-0.267-0.578-0.267-1.223 0-0.618 0.021-0.728 0.226-1.16 0.287-0.606 0.697-1.050 1.23-1.334 0.563-0.3 0.872-0.368 1.53-0.337 0.429 0.020 0.658 0.075 1.014 0.241zM5.168 20.276c0.645 0.302 1.063 0.712 1.383 1.359 0.252 0.51 0.267 0.578 0.267 1.227s-0.015 0.716-0.267 1.227c-0.322 0.651-0.736 1.056-1.401 1.37-0.432 0.205-0.543 0.226-1.157 0.226s-0.725-0.022-1.157-0.226c-0.665-0.315-1.079-0.72-1.401-1.37-0.252-0.51-0.267-0.578-0.267-1.223 0-0.618 0.021-0.728 0.226-1.16 0.287-0.606 0.697-1.050 1.23-1.334 0.563-0.3 0.872-0.368 1.53-0.337 0.429 0.020 0.658 0.075 1.014 0.241zM27.49 20.069c-0.931 0.225-1.626 1.031-1.728 2.002-0.040 0.387-0.029 0.436 0.141 0.606 0.398 0.398 0.886 0.17 0.985-0.461 0.1-0.632 0.432-0.963 1.064-1.063 0.623-0.099 0.859-0.587 0.471-0.975-0.183-0.183-0.481-0.218-0.933-0.109zM3.456 20.641c-0.931 0.225-1.626 1.030-1.728 2.002-0.040 0.387-0.029 0.436 0.141 0.606 0.398 0.398 0.885 0.17 0.985-0.461 0.1-0.632 0.432-0.963 1.064-1.063 0.623-0.099 0.859-0.587 0.471-0.975-0.183-0.183-0.481-0.218-0.933-0.109zM17.087 26.586c0.484 0.258 0.702 0.485 0.981 1.021 0.161 0.31 0.19 0.456 0.191 0.973 0.001 0.556-0.019 0.645-0.241 1.058-0.271 0.502-0.495 0.718-1.034 0.998-0.312 0.162-0.455 0.19-0.973 0.19s-0.662-0.028-0.973-0.19c-0.539-0.28-0.764-0.496-1.034-0.998-0.223-0.413-0.243-0.501-0.241-1.058 0.003-0.717 0.172-1.146 0.637-1.61 0.714-0.713 1.783-0.866 2.688-0.384zM15.438 26.958c-0.351 0.111-0.95 0.73-1.058 1.094-0.136 0.458-0.11 0.726 0.089 0.924 0.355 0.355 0.969 0.103 0.969-0.396 0-0.294 0.278-0.572 0.572-0.572 0.139 0 0.286-0.065 0.397-0.175 0.378-0.378 0.1-0.976-0.447-0.961-0.149 0.004-0.384 0.043-0.522 0.086z"></path>
</symbol>

<symbol id="icon-molecule" viewBox="0 0 32 32">
<path fill="#d3b288" style="fill: var(--color1, #d3b288)" d="M4.887 0.073c-0.646 0.121-1.461 0.573-1.994 1.105-1.566 1.565-1.573 4.056-0.016 5.612 0.815 0.815 1.669 1.166 2.832 1.166 0.846 0 1.429-0.155 2.040-0.542l0.344-0.218 3.056 3.054-0.38 0.577c-1.241 1.885-1.385 4.253-0.38 6.236 0.107 0.211 0.168 0.407 0.136 0.436s-0.861 0.622-1.84 1.32l-1.781 1.268-0.186-0.151c-0.459-0.372-1.048-0.719-1.458-0.858-2.798-0.948-5.645 1.435-5.218 4.366 0.22 1.51 1.277 2.734 2.805 3.25 0.546 0.184 1.743 0.184 2.289 0 1.315-0.444 2.248-1.375 2.692-2.688 0.1-0.296 0.131-0.588 0.126-1.179-0.006-0.757-0.046-0.95-0.347-1.688-0.036-0.089 0.367-0.41 1.783-1.42l1.83-1.304 0.338 0.315c1.020 0.95 2.124 1.522 3.342 1.733l0.501 0.086 0.019 2.328 0.019 2.328-0.246 0.046c-0.476 0.089-1.22 0.526-1.631 0.956-1.306 1.368-1.31 3.375-0.009 4.738 1.344 1.408 3.569 1.408 4.913 0 1.339-1.403 1.285-3.541-0.123-4.843-0.435-0.403-1.097-0.771-1.53-0.853l-0.233-0.044 0.019-2.333 0.019-2.333 0.179-0.019c1.268-0.135 2.686-0.833 3.633-1.789l0.48-0.485 1.717 1.138c0.944 0.626 1.728 1.148 1.743 1.16s-0.043 0.225-0.127 0.473c-0.72 2.121 0.439 4.362 2.641 5.105 0.546 0.184 1.743 0.184 2.289 0 1.316-0.444 2.25-1.378 2.691-2.688 0.184-0.546 0.183-1.743-0.001-2.287-0.622-1.841-2.306-2.991-4.151-2.835-0.871 0.074-1.696 0.421-2.267 0.956-0.206 0.192-0.388 0.307-0.45 0.284-0.080-0.031-3.28-2.137-3.395-2.235-0.015-0.012 0.089-0.307 0.23-0.655 0.826-2.039 0.556-4.191-0.768-6.128-0.091-0.133-0.011-0.225 1.185-1.358 0.705-0.668 1.443-1.356 1.639-1.527l0.356-0.312 0.415 0.221c1.372 0.731 2.906 0.526 4.021-0.536 1.377-1.313 1.417-3.429 0.091-4.819-1.314-1.376-3.432-1.416-4.823-0.090-1.099 1.048-1.37 2.655-0.677 4.021l0.177 0.348-1.124 1.061c-0.618 0.584-1.353 1.28-1.634 1.548l-0.51 0.487-0.472-0.357c-2.043-1.545-4.953-1.615-7.149-0.172l-0.582 0.382-3.056-3.054 0.218-0.343c0.388-0.611 0.543-1.193 0.543-2.039-0-1.155-0.351-2.011-1.158-2.826-0.93-0.938-2.286-1.347-3.632-1.094zM6.885 1.407c0.645 0.302 1.063 0.712 1.383 1.359 0.252 0.51 0.267 0.578 0.267 1.226s-0.015 0.716-0.267 1.226c-0.322 0.651-0.736 1.056-1.401 1.37-0.432 0.205-0.543 0.226-1.157 0.226s-0.725-0.022-1.157-0.226c-0.665-0.315-1.079-0.72-1.401-1.37-0.252-0.51-0.267-0.578-0.267-1.223 0-0.618 0.021-0.728 0.226-1.16 0.287-0.606 0.697-1.050 1.23-1.334 0.563-0.3 0.872-0.368 1.53-0.337 0.429 0.020 0.658 0.075 1.014 0.241zM5.173 1.772c-0.931 0.225-1.626 1.030-1.728 2.002-0.040 0.387-0.029 0.435 0.141 0.606 0.398 0.398 0.885 0.17 0.985-0.461 0.1-0.632 0.432-0.963 1.064-1.063 0.623-0.099 0.859-0.587 0.471-0.975-0.183-0.183-0.481-0.218-0.933-0.109zM27.387 2.571c0.484 0.258 0.702 0.485 0.981 1.021 0.161 0.31 0.19 0.456 0.191 0.973 0.001 0.556-0.019 0.645-0.242 1.058-0.271 0.502-0.495 0.718-1.034 0.998-0.311 0.162-0.455 0.19-0.973 0.19s-0.662-0.028-0.973-0.19c-0.539-0.28-0.763-0.496-1.034-0.998-0.223-0.413-0.243-0.501-0.241-1.058 0.003-0.717 0.172-1.146 0.637-1.61 0.714-0.713 1.783-0.866 2.688-0.384zM25.738 2.943c-0.351 0.111-0.95 0.73-1.057 1.094-0.136 0.458-0.11 0.726 0.089 0.924 0.355 0.355 0.969 0.103 0.969-0.396 0-0.294 0.278-0.572 0.572-0.572s0.572-0.278 0.572-0.572c0-0.482-0.487-0.686-1.145-0.478zM17.548 9.382c0.812 0.258 1.415 0.635 2.075 1.293 0.654 0.653 1.030 1.252 1.302 2.073 0.167 0.505 0.189 0.685 0.189 1.537s-0.022 1.032-0.189 1.537c-0.272 0.821-0.648 1.42-1.302 2.073s-1.253 1.029-2.075 1.301c-0.505 0.167-0.685 0.189-1.538 0.189s-1.033-0.022-1.538-0.189c-0.822-0.272-1.421-0.647-2.075-1.301s-1.030-1.252-1.302-2.073c-0.167-0.505-0.189-0.685-0.189-1.537s0.022-1.032 0.189-1.537c0.271-0.818 0.646-1.417 1.302-2.079 0.78-0.788 1.675-1.268 2.718-1.458 0.628-0.115 1.792-0.033 2.432 0.171zM15.187 10.366c-0.197 0.037-0.617 0.192-0.934 0.345-1.318 0.635-2.249 2.092-2.249 3.52 0 0.544 0.591 0.829 0.957 0.463 0.126-0.126 0.174-0.278 0.21-0.654 0.128-1.366 1.224-2.465 2.586-2.59 0.384-0.036 0.535-0.083 0.662-0.21 0.22-0.22 0.215-0.554-0.012-0.781-0.194-0.194-0.539-0.22-1.219-0.092zM29.202 19.704c0.645 0.302 1.063 0.712 1.383 1.359 0.252 0.51 0.267 0.578 0.267 1.227s-0.015 0.716-0.267 1.226c-0.322 0.651-0.736 1.056-1.401 1.371-0.432 0.205-0.543 0.226-1.157 0.226s-0.725-0.022-1.157-0.226c-0.665-0.315-1.079-0.72-1.401-1.371-0.252-0.51-0.267-0.578-0.267-1.223 0-0.618 0.021-0.728 0.226-1.16 0.287-0.606 0.697-1.050 1.23-1.334 0.563-0.3 0.872-0.368 1.53-0.337 0.429 0.020 0.658 0.075 1.014 0.241zM5.168 20.276c0.645 0.302 1.063 0.712 1.383 1.359 0.252 0.51 0.267 0.578 0.267 1.227s-0.015 0.716-0.267 1.227c-0.322 0.651-0.736 1.056-1.401 1.37-0.432 0.205-0.543 0.226-1.157 0.226s-0.725-0.022-1.157-0.226c-0.665-0.315-1.079-0.72-1.401-1.37-0.252-0.51-0.267-0.578-0.267-1.223 0-0.618 0.021-0.728 0.226-1.16 0.287-0.606 0.697-1.050 1.23-1.334 0.563-0.3 0.872-0.368 1.53-0.337 0.429 0.020 0.658 0.075 1.014 0.241zM27.49 20.069c-0.931 0.225-1.626 1.031-1.728 2.002-0.040 0.387-0.029 0.436 0.141 0.606 0.398 0.398 0.886 0.17 0.985-0.461 0.1-0.632 0.432-0.963 1.064-1.063 0.623-0.099 0.859-0.587 0.471-0.975-0.183-0.183-0.481-0.218-0.933-0.109zM3.456 20.641c-0.931 0.225-1.626 1.030-1.728 2.002-0.040 0.387-0.029 0.436 0.141 0.606 0.398 0.398 0.885 0.17 0.985-0.461 0.1-0.632 0.432-0.963 1.064-1.063 0.623-0.099 0.859-0.587 0.471-0.975-0.183-0.183-0.481-0.218-0.933-0.109zM17.087 26.586c0.484 0.258 0.702 0.485 0.981 1.021 0.161 0.31 0.19 0.456 0.191 0.973 0.001 0.556-0.019 0.645-0.241 1.058-0.271 0.502-0.495 0.718-1.034 0.998-0.312 0.162-0.455 0.19-0.973 0.19s-0.662-0.028-0.973-0.19c-0.539-0.28-0.764-0.496-1.034-0.998-0.223-0.413-0.243-0.501-0.241-1.058 0.003-0.717 0.172-1.146 0.637-1.61 0.714-0.713 1.783-0.866 2.688-0.384zM15.438 26.958c-0.351 0.111-0.95 0.73-1.058 1.094-0.136 0.458-0.11 0.726 0.089 0.924 0.355 0.355 0.969 0.103 0.969-0.396 0-0.294 0.278-0.572 0.572-0.572 0.139 0 0.286-0.065 0.397-0.175 0.378-0.378 0.1-0.976-0.447-0.961-0.149 0.004-0.384 0.043-0.522 0.086z"></path>
</symbol>

<symbol id="icon-skincare" viewBox="0 0 32 32">
<path fill="#d3b288" style="fill: var(--color1, #d3b288)" d="M15.658 3.967c-0.166 0.146-6.79 12.472-7.019 13.060-0.083 0.214-0.159 0.397-0.169 0.407s-0.167-0.222-0.35-0.515c-0.443-0.709-1.256-1.485-1.881-1.794l-0.489-0.243-5.392-0.044-0.179 0.182c-0.236 0.239-0.238 0.57-0.004 0.807l0.175 0.178 5.043 0.001 0.385 0.181c0.476 0.225 1.161 0.923 1.528 1.558 0.425 0.736 0.626 1.477 0.697 2.567 0.071 1.097 0.194 1.738 0.493 2.568 0.871 2.42 2.89 4.295 5.371 4.988 4.004 1.119 8.229-1.067 9.64-4.988 0.294-0.815 0.415-1.448 0.494-2.564 0.037-0.52 0.113-1.116 0.17-1.326 0.335-1.231 1.23-2.427 2.12-2.836 0.299-0.137 0.465-0.146 2.839-0.147l2.521-0.002 0.175-0.178c0.234-0.237 0.232-0.568-0.004-0.807l-0.179-0.182-5.392 0.044-0.489 0.243c-0.756 0.374-1.584 1.227-2.157 2.22-0.064 0.111-0.097 0.072-0.227-0.272-0.217-0.574-6.861-12.953-7.035-13.106-0.079-0.070-0.233-0.127-0.342-0.127s-0.263 0.057-0.342 0.127zM19.135 11.473c1.734 3.232 3.179 6.008 3.298 6.339 1.305 3.624-0.612 7.601-4.254 8.826-2.025 0.681-4.217 0.39-5.954-0.788-1.449-0.983-2.431-2.366-2.878-4.054-0.131-0.494-0.164-0.808-0.166-1.593-0.003-1.052 0.109-1.713 0.428-2.538 0.197-0.509 6.315-11.943 6.391-11.943 0.027 0 1.438 2.588 3.136 5.751zM14.461 15.023c-0.173 0.175-0.175 0.196-0.175 1.448v1.27h-1.253c-1.708 0-1.604-0.112-1.604 1.738s-0.104 1.738 1.604 1.738h1.253v1.27c0 1.731-0.111 1.626 1.714 1.626s1.714 0.105 1.714-1.626v-1.27h1.253c1.708 0 1.604 0.112 1.604-1.738s0.104-1.738-1.604-1.738h-1.253v-1.27c0-1.731 0.111-1.626-1.714-1.626-1.353 0-1.365 0.001-1.539 0.178zM16.571 17.274c0 1.72-0.093 1.626 1.604 1.626h1.253v1.158h-1.253c-1.697 0-1.604-0.094-1.604 1.626v1.27h-1.143v-1.27c0-1.72 0.093-1.626-1.604-1.626h-1.253v-1.158h1.253c1.697 0 1.604 0.094 1.604-1.626v-1.27h1.143v1.27z"></path>
</symbol>


</defs>
</svg>
